<?xml version="1.0" encoding="utf-8"?>
<!-- Generator: Adobe Illustrator 23.0.2, SVG Export Plug-In . SVG Version: 6.00 Build 0)  -->
<svg version="1.1" xmlns="http://www.w3.org/2000/svg" xmlns:xlink="http://www.w3.org/1999/xlink" x="0px" y="0px"
	 viewBox="0 0 1383.9 874.55" style="enable-background:new 0 0 1383.9 874.55;" xml:space="preserve">
<style type="text/css">
	.st0{clip-path:url(#SVGID_2_);fill:#2D4996;}
	.st1{opacity:0.7;clip-path:url(#SVGID_2_);fill:url(#SVGID_3_);}
	.st2{opacity:0.7;}
	.st3{clip-path:url(#SVGID_6_);fill:url(#SVGID_7_);}
	.st4{opacity:0.4;}
	.st5{clip-path:url(#SVGID_10_);fill:url(#SVGID_11_);}
	.st6{clip-path:url(#SVGID_14_);}
	.st7{clip-path:url(#SVGID_15_);fill:url(#SVGID_16_);}
	.st8{clip-path:url(#SVGID_19_);fill:url(#SVGID_20_);}
	.st9{clip-path:url(#SVGID_23_);fill:url(#SVGID_24_);}
	.st10{clip-path:url(#SVGID_27_);fill:url(#SVGID_28_);}
</style>
<g id="completo">
	<g>
		<defs>
			<polygon id="SVGID_1_" points="0,-20.55 1403.25,-32.55 1403.25,862.55 0,874.55 			"/>
		</defs>
		<clipPath id="SVGID_2_">
			<use xlink:href="#SVGID_1_"  style="overflow:visible;"/>
		</clipPath>
		<path class="st0" d="M32.78,850.41h39.61v-85.94c0.57-0.07,1.15-0.16,1.73-0.23c19.94,28.81,39.87,57.62,59.72,86.3h38.69V695.55
			h-39.97v87.49c-21.29-30.79-41.06-59.39-60.54-87.59H32.78V850.41z"/>
		<path class="st0" d="M263.38,695.52h-41.15c-0.24,1.74-0.54,2.88-0.54,4.02c0.05,27.09,0.04,54.17,0.3,81.25
			c0.04,4.72,0.91,9.47,1.89,14.11c7.91,37.16,36.08,57.89,75.65,55.79c34.81-1.85,61.29-26.66,63.63-62.82
			c1.94-29.92,0.81-60.05,0.98-90.09c0-0.75-0.73-1.51-1.12-2.26h-40.78v10.23c0,23.21,0.51,46.45-0.26,69.64
			c-0.29,8.68-2.63,17.62-5.74,25.8c-3.58,9.43-10.95,15.47-21.8,15.68c-11.11,0.21-19.34-5.31-23.14-15.1
			c-3.8-9.79-7.14-20.38-7.58-30.75C262.65,746.11,263.38,721.12,263.38,695.52"/>
		<path class="st0" d="M1150.41,816.68c-23.63,0-46.22,0.15-68.81-0.05c-14.49-0.12-22.71-6.32-27.05-20.03
			c-4.5-14.24-4.77-28.73-1.04-43.13c4.32-16.65,14.27-24.11,31.67-24.2c16.34-0.09,32.68-0.02,49.5-0.02
			c5.19-11.14,10.26-22.03,15.6-33.51c-27.26,0-53.33-2.37-78.79,0.57c-36.54,4.22-56.22,25.77-61.08,61.59
			c-1.23,9.06-1.08,18.46-0.35,27.6c3.29,41.42,29.54,65.44,70.91,65.45c19.93,0,39.86,0,59.79,0c3.14,0,6.27,0,9.64,0V816.68z"/>
		<path class="st0" d="M1199.07,850.14h39.26v-39.38c35.6-38.12,71.15-76.19,107.83-115.47h-50.89
			c-18.46,19.22-36.86,38.37-57.11,59.46v-58.84h-39.08V850.14z"/>
		<path class="st0" d="M502.04,850.51V729.35h38.62c5.36-11.48,10.45-22.39,15.79-33.82H416.39v34.07h46.11v120.91H502.04z"/>
		<linearGradient id="SVGID_3_" gradientUnits="userSpaceOnUse" x1="1265.127" y1="813.8032" x2="1347.1748" y2="813.8032">
			<stop  offset="0" style="stop-color:#2D4996"/>
			<stop  offset="0.8" style="stop-color:#0081AB"/>
			<stop  offset="1" style="stop-color:#29AE7E"/>
		</linearGradient>
		<path class="st1" d="M1298.59,850.07h48.59c-18.54-24.8-36.21-48.42-54.23-72.53c-9.7,10.27-18.63,19.73-27.82,29.46
			C1276.69,821.88,1287.96,836.39,1298.59,850.07"/>
		<path class="st0" d="M705.76,794.82c12.87,18.67,25.15,36.5,38.15,55.36h-48.48c-17.29-24.49-35.06-49.67-52.83-74.85
			c-0.56,0.13-1.12,0.26-1.67,0.39v74.65h-39.47V695.24h29.5c19.63,0,39.25-0.04,58.88,0.01c25.67,0.07,44.63,14.88,49.33,38.94
			c4.07,20.9-1.03,49.05-29.62,58.64C708.45,793.2,707.47,793.91,705.76,794.82 M641.16,762.03c14.66,0,28.81,0.16,42.95-0.05
			c9.38-0.14,14.67-5.71,14.96-15.02c0.3-9.73-4.86-16.82-14.08-17.2c-14.42-0.61-28.89-0.16-43.83-0.16V762.03z"/>
		<path class="st0" d="M837.58,823.48c-4.42,9.66-8.38,18.29-12.52,27.33h-42.18c23.19-52.11,46.05-103.5,69.02-155.1h44.96
			c22.69,51.03,45.56,102.47,68.87,154.91h-43.8c-7.76-17-15.6-34.15-23.98-52.48c-6.7,8.99-12.67,17-18.9,25.36H837.58z
			 M893.62,787.87c-6.69-14.98-12.93-28.94-19.88-44.5c-7.29,16.03-13.62,29.92-20.25,44.5H893.62z"/>
	</g>
	<g class="st2">
		<defs>
			<path id="SVGID_4_" class="st2" d="M936.14,19.36c-34.46,48.9-74.55,104.54-110.02,153.75c-11.89,16.5-33.55,45.98-54.28,74.21
				l39.23,67.94c14.92-19.82,29.31-39.02,31.49-42.11c6.19-8.79,94-133.77,178.3-253.78H936.14z"/>
		</defs>
		<linearGradient id="SVGID_5_" gradientUnits="userSpaceOnUse" x1="771.8482" y1="167.3024" x2="1020.8662" y2="167.3024">
			<stop  offset="0" style="stop-color:#2D4996"/>
			<stop  offset="0.8" style="stop-color:#0081AB"/>
			<stop  offset="1" style="stop-color:#29AE7E"/>
		</linearGradient>
		<use xlink:href="#SVGID_4_"  style="overflow:visible;fill:url(#SVGID_5_);"/>
		<clipPath id="SVGID_6_">
			<use xlink:href="#SVGID_4_"  style="overflow:visible;"/>
		</clipPath>
		<linearGradient id="SVGID_7_" gradientUnits="userSpaceOnUse" x1="630.6192" y1="167.3038" x2="1162.0957" y2="167.3038">
			<stop  offset="0" style="stop-color:#2D4996"/>
			<stop  offset="0.8" style="stop-color:#0081AB"/>
			<stop  offset="1" style="stop-color:#29AE7E"/>
		</linearGradient>
		<polygon class="st3" points="1162.1,123.23 933.45,434.11 630.62,211.38 859.26,-99.5 		"/>
	</g>
	<g class="st4">
		<defs>
			<path id="SVGID_8_" class="st4" d="M769.49,17.75c-32.56,46.34-55.5,78.98-58.55,83.32c-1.53,2.17-6.36,8.18-13.53,17.09
				c-0.02,0.02-0.05,0.06-0.07,0.08l42.33,73.31c3.54-4.67,6.18-8.16,7.28-9.58c8.72-11.32,17.75-23.03,22.12-29.22
				c4.09-5.81,43.96-62.53,94.87-135H769.49z"/>
		</defs>
		<linearGradient id="SVGID_9_" gradientUnits="userSpaceOnUse" x1="697.3311" y1="104.6501" x2="863.9199" y2="104.6501">
			<stop  offset="0" style="stop-color:#2D4996"/>
			<stop  offset="0.8" style="stop-color:#0081AB"/>
			<stop  offset="1" style="stop-color:#29AE7E"/>
		</linearGradient>
		<use xlink:href="#SVGID_8_"  style="overflow:visible;fill:url(#SVGID_9_);"/>
		<clipPath id="SVGID_10_">
			<use xlink:href="#SVGID_8_"  style="overflow:visible;"/>
		</clipPath>
		<linearGradient id="SVGID_11_" gradientUnits="userSpaceOnUse" x1="612.8081" y1="104.6501" x2="948.4453" y2="104.6501">
			<stop  offset="0" style="stop-color:#2D4996"/>
			<stop  offset="0.8" style="stop-color:#0081AB"/>
			<stop  offset="1" style="stop-color:#29AE7E"/>
		</linearGradient>
		<polygon class="st5" points="948.45,84.45 799.98,272.57 612.81,124.85 761.27,-63.27 		"/>
	</g>
	<g>
		<defs>
			<path id="SVGID_12_" d="M606.84,254.42c-0.07,0.08-0.13,0.17-0.19,0.26"/>
		</defs>
		<defs>
			<path id="SVGID_13_" d="M606.64,254.68"/>
		</defs>
		<clipPath id="SVGID_14_">
			<use xlink:href="#SVGID_12_"  style="overflow:visible;"/>
		</clipPath>
		<clipPath id="SVGID_15_" class="st6">
			<use xlink:href="#SVGID_13_"  style="overflow:visible;"/>
		</clipPath>
		
			<linearGradient id="SVGID_16_" gradientUnits="userSpaceOnUse" x1="657.1133" y1="641.1606" x2="659.2129" y2="641.1606" gradientTransform="matrix(150.0317 -235.8988 -235.8988 -150.0317 53069.6211 251816.5)">
			<stop  offset="0" style="stop-color:#A3589E"/>
			<stop  offset="1" style="stop-color:#1E3C90"/>
			<stop  offset="1" style="stop-color:#1E3C90"/>
		</linearGradient>
		<polygon class="st7" points="585.8,287.19 614.25,242.45 653.91,267.68 625.46,312.42 		"/>
	</g>
	<g class="st2">
		<defs>
			<path id="SVGID_17_" class="st2" d="M536,351.07c-6.19,8.79-94.01,133.77-178.31,253.78h84.72
				c34.57-49.06,74.46-104.71,109.73-153.93c10.5-14.65,31.45-43.6,52.83-73.15l-39.06-67.66C550.92,330.56,537.88,348.4,536,351.07
				"/>
		</defs>
		<linearGradient id="SVGID_18_" gradientUnits="userSpaceOnUse" x1="357.6851" y1="457.4832" x2="604.9658" y2="457.4832">
			<stop  offset="0" style="stop-color:#2D4996"/>
			<stop  offset="0.8" style="stop-color:#0081AB"/>
			<stop  offset="1" style="stop-color:#29AE7E"/>
		</linearGradient>
		<use xlink:href="#SVGID_17_"  style="overflow:visible;fill:url(#SVGID_18_);"/>
		<clipPath id="SVGID_19_">
			<use xlink:href="#SVGID_17_"  style="overflow:visible;"/>
		</clipPath>
		<linearGradient id="SVGID_20_" gradientUnits="userSpaceOnUse" x1="224.2158" y1="457.4812" x2="738.4331" y2="457.4812">
			<stop  offset="0" style="stop-color:#2D4996"/>
			<stop  offset="0.8" style="stop-color:#0081AB"/>
			<stop  offset="1" style="stop-color:#29AE7E"/>
		</linearGradient>
		<polygon class="st8" points="224.22,519.97 428.9,198.14 738.43,394.99 533.75,716.83 		"/>
	</g>
	<g class="st4">
		<defs>
			<path id="SVGID_21_" class="st4" d="M631.27,442.26c-8.53,11.28-17.35,22.94-21.75,29.2c-4.1,5.81-43.95,62.52-94.87,134.99h88.9
				c28.21-40.06,59.4-82.71,74.1-102.79l-40.26-69.73C634.33,438.13,632.12,441.13,631.27,442.26"/>
		</defs>
		<linearGradient id="SVGID_22_" gradientUnits="userSpaceOnUse" x1="514.6436" y1="520.189" x2="677.648" y2="520.189">
			<stop  offset="0" style="stop-color:#2D4996"/>
			<stop  offset="0.8" style="stop-color:#0081AB"/>
			<stop  offset="1" style="stop-color:#29AE7E"/>
		</linearGradient>
		<use xlink:href="#SVGID_21_"  style="overflow:visible;fill:url(#SVGID_22_);"/>
		<clipPath id="SVGID_23_">
			<use xlink:href="#SVGID_21_"  style="overflow:visible;"/>
		</clipPath>
		<linearGradient id="SVGID_24_" gradientUnits="userSpaceOnUse" x1="431.0986" y1="520.1938" x2="761.1924" y2="520.1938">
			<stop  offset="0" style="stop-color:#2D4996"/>
			<stop  offset="0.8" style="stop-color:#0081AB"/>
			<stop  offset="1" style="stop-color:#29AE7E"/>
		</linearGradient>
		<polygon class="st9" points="431.1,541.69 575.84,355 761.19,498.7 616.45,685.39 		"/>
	</g>
	<g>
		<defs>
			<path id="SVGID_25_" d="M718.05,447.64l91.69,158.81h113.49c64.67-87.64,403.91-588.71,403.91-588.71h-94.83h-4.33h-136.83
				l-60.46,85.88c-38.65,54.91-85.58,120.23-126.98,177.87c-24.36,33.89-45.99,64.02-62.09,86.65l38.62,66.89
				c2.51-3.26,5.16-6.7,7.86-10.2c8.75-11.35,17.81-23.1,22.18-29.3c7-9.94,118.3-168.34,210.91-300.19l2.15-3.06h62.5l-8.01,11.36
				C1101.57,211.66,920.6,467.96,886.98,514.7c-2.54,3.53-5.25,6.98-8.49,11.07l-4.66,5.94l-6.11,9.27l-5.8-10.25
				c-13.24-23.39-27.64-48.8-42.7-75.36l-49.46-85.66L757.33,349l-16.37-27.2l-9.79-18.95l-32.71-56.64l-4.41-7.26l-37.27-62.65
				l-7.08-12.04L566.57,17.75H455.33c-64.74,87.74-412.8,585.9-412.8,585.9l108.08,0.13l1.44,0.01h137.25l58.57-83.2
				c38.88-55.24,85.74-120.76,127.08-178.58c23.44-32.79,44.57-62.34,60.45-84.71l-38.56-66.79c-2.17,2.87-4.42,5.85-6.72,8.9
				c-8.56,11.31-17.41,23.01-21.82,29.29c-7,9.93-118.3,168.34-210.91,300.2l-2.15,3.06h-62.5l8.01-11.36
				c76.27-108.07,257.3-364.46,290.83-411.08c2.5-3.47,5.18-6.87,8.34-10.9l10.61-13.58l5.32,9.38
				c26.81,47.3,58.53,103.05,90.98,160.01"/>
		</defs>
		<linearGradient id="SVGID_26_" gradientUnits="userSpaceOnUse" x1="42.5249" y1="312.0991" x2="1327.1338" y2="312.0991">
			<stop  offset="0" style="stop-color:#2D4996"/>
			<stop  offset="1" style="stop-color:#0081AB"/>
		</linearGradient>
		<use xlink:href="#SVGID_25_"  style="overflow:visible;fill:url(#SVGID_26_);"/>
		<clipPath id="SVGID_27_">
			<use xlink:href="#SVGID_25_"  style="overflow:visible;"/>
		</clipPath>
		<linearGradient id="SVGID_28_" gradientUnits="userSpaceOnUse" x1="32.5254" y1="312.0991" x2="1346.0342" y2="312.0991">
			<stop  offset="0" style="stop-color:#2D4996"/>
			<stop  offset="1" style="stop-color:#0081AB"/>
		</linearGradient>
		<rect x="32.53" y="17.75" class="st10" width="1313.51" height="588.71"/>
	</g>
</g>
<g id="fondo">
</g>
</svg>
